<svg width="8112" height="2073" xmlns="http://www.w3.org/2000/svg" xmlns:xlink="http://www.w3.org/1999/xlink" xml:space="preserve" overflow="hidden"><defs><filter id="fx0" x="-10%" y="-10%" width="120%" height="120%" filterUnits="userSpaceOnUse" primitiveUnits="userSpaceOnUse"><feComponentTransfer color-interpolation-filters="sRGB"><feFuncR type="discrete" tableValues="0 0"/><feFuncG type="discrete" tableValues="0 0"/><feFuncB type="discrete" tableValues="0 0"/><feFuncA type="linear" slope="0.4" intercept="0"/></feComponentTransfer><feGaussianBlur stdDeviation="6.11111 6.11111"/></filter><filter id="fx1" x="-10%" y="-10%" width="120%" height="120%" filterUnits="userSpaceOnUse" primitiveUnits="userSpaceOnUse"><feComponentTransfer color-interpolation-filters="sRGB"><feFuncR type="discrete" tableValues="0 0"/><feFuncG type="discrete" tableValues="0 0"/><feFuncB type="discrete" tableValues="0 0"/><feFuncA type="linear" slope="0.4" intercept="0"/></feComponentTransfer><feGaussianBlur stdDeviation="6.11111 6.11111"/></filter><clipPath id="clip2"><rect x="370" y="1634" width="8112" height="2073"/></clipPath><clipPath id="clip3"><rect x="5901" y="1667" width="331" height="331"/></clipPath><clipPath id="clip4"><rect x="5901" y="1667" width="331" height="331"/></clipPath><clipPath id="clip5"><rect x="5901" y="1667" width="331" height="331"/></clipPath><clipPath id="clip6"><rect x="-3" y="-3" width="59" height="2075"/></clipPath><clipPath id="clip7"><rect x="0" y="0" width="54" height="2075"/></clipPath><clipPath id="clip8"><rect x="-3" y="-3" width="59" height="2075"/></clipPath><clipPath id="clip9"><rect x="0" y="0" width="54" height="2075"/></clipPath><clipPath id="clip10"><rect x="3110" y="1667" width="331" height="331"/></clipPath><clipPath id="clip11"><rect x="3110" y="1667" width="331" height="331"/></clipPath><clipPath id="clip12"><rect x="3110" y="1667" width="331" height="331"/></clipPath><clipPath id="clip13"><rect x="369" y="1669" width="331" height="331"/></clipPath><clipPath id="clip14"><rect x="369" y="1669" width="331" height="331"/></clipPath><clipPath id="clip15"><rect x="369" y="1669" width="331" height="331"/></clipPath></defs><g clip-path="url(#clip2)" transform="translate(-370 -1634)"><g clip-path="url(#clip3)"><g clip-path="url(#clip4)"><g clip-path="url(#clip5)"><path d="M6066.66 1946.44C6013.38 1946.44 5970.41 1903.47 5970.41 1850.19 5970.41 1796.91 6013.38 1753.94 6066.66 1753.94 6119.94 1753.94 6162.91 1796.91 6162.91 1850.19L6162.91 1850.19C6162.91 1903.47 6119.94 1946.44 6066.66 1946.44ZM6148.12 1766.31 6158.44 1756C6162.22 1751.87 6162.22 1745.34 6158.09 1741.56 6153.97 1737.78 6147.78 1737.44 6143.66 1741.22L6131.97 1753.25C6115.47 1742.25 6096.56 1735.37 6076.97 1734L6076.97 1719.56 6107.91 1719.56 6107.91 1698.94 6025.41 1698.94 6025.41 1719.56 6056.34 1719.56 6056.34 1733.66C5991.72 1739.16 5944.28 1796.22 5949.78 1860.5 5955.28 1924.78 6012.34 1972.56 6076.62 1967.06 6140.91 1961.56 6188.69 1904.5 6183.19 1840.22 6180.78 1812.03 6168.41 1785.91 6148.12 1766.31Z" fill="#FF0000"/><path d="M6125.09 1791.75C6111.34 1778 6093.12 1769.41 6073.53 1768.03L6073.53 1850.19 6059.78 1850.19 6059.78 1768.03C6014.41 1771.81 5980.72 1811.69 5984.5 1857.06 5988.28 1902.44 6028.16 1936.12 6073.53 1932.69 6118.91 1929.25 6152.59 1889.03 6148.81 1843.66 6147.44 1824.06 6138.84 1805.84 6125.09 1791.75Z" fill="#FF0000"/></g></g></g><path d="M1709.36 2324.73 1544.5 2464.61 1326.76 2442.85 1289.43 2464.61 1550.72 2511.23 1703.14 2421.09 1709.36 2505.01 1700.03 2613.81 1413.86 2641.78 1376.53 2657.32 1354.76 2691.51 1348.53 2722.6 1311.21 3089.38 1221 3136 1382.75 3132.89 1454.29 2763 1734.25 2753.68 1840.01 2735.03 1877.34 2654.21 1896 2592.05 1886.67 2312.3 1858.67 2278.11 1805.79 2275 1743.58 2281.22 1709.36 2324.73Z" fill-rule="evenodd"/><path d="M1711 2163C1711 2108.88 1755.32 2065 1810 2065 1864.68 2065 1909 2108.88 1909 2163 1909 2217.12 1864.68 2261 1810 2261 1755.32 2261 1711 2217.12 1711 2163Z" fill-rule="evenodd"/><path d="M1635.89 2849.01 1634.08 2891.7 1673.18 2892.31 1673.18 3191.19 1588.36 3171.94 1589.57 3196.6 1595.58 3193.59 1601.6 3192.99 1604.61 3197.2 1604.61 3194.79 1658.74 3205.62 1524 3230.28 1524.6 3257.34 1531.82 3252.53 1534.23 3253.73 1540.24 3257.34 1542.65 3251.92 1540.24 3248.92 1542.65 3242.9 1676.79 3226.07 1678.59 3285 1688.82 3280.79 1691.23 3280.79 1697.24 3282.59 1697.24 3282.59 1697.24 3282.59 1699.65 3225.46 1816.34 3260.95 1817.55 3264.55 1824.77 3262.75 1832.59 3262.15 1838 3265.15 1835.59 3241.1 1734.54 3211.63 1795.29 3198.4 1796.49 3201.41 1809.13 3202.01 1811.53 3200.21 1807.92 3173.15 1706.26 3195.4C1706.06 3094.57 1705.86 2993.74 1705.66 2892.91L1747.17 2893.51 1745.97 2846 1635.89 2849.01Z" fill-rule="evenodd"/><path d="M1870.44 2783 1507.77 2783 1453.21 2830.61 1450 2852.83 1501.35 2856 1925 2856 1905.74 2811.57 1870.44 2783Z" fill-rule="evenodd"/><path d="M1518 3267.5C1518 3258.94 1524.72 3252 1533 3252 1541.28 3252 1548 3258.94 1548 3267.5 1548 3276.06 1541.28 3283 1533 3283 1524.72 3283 1518 3276.06 1518 3267.5Z" fill-rule="evenodd"/><path d="M1673 3294C1673 3285.72 1679.72 3279 1688 3279 1696.28 3279 1703 3285.72 1703 3294 1703 3302.28 1696.28 3309 1688 3309 1679.72 3309 1673 3302.28 1673 3294Z" fill-rule="evenodd"/><path d="M1812 3276C1812 3267.72 1818.94 3261 1827.5 3261 1836.06 3261 1843 3267.72 1843 3276 1843 3284.28 1836.06 3291 1827.5 3291 1818.94 3291 1812 3284.28 1812 3276Z" fill-rule="evenodd"/><path d="M1790 3210.5C1790 3203.04 1796.04 3197 1803.5 3197 1810.96 3197 1817 3203.04 1817 3210.5 1817 3217.96 1810.96 3224 1803.5 3224 1796.04 3224 1790 3217.96 1790 3210.5Z" fill-rule="evenodd"/><path d="M1584 3204.5C1584 3197.04 1589.82 3191 1597 3191 1604.18 3191 1610 3197.04 1610 3204.5 1610 3211.96 1604.18 3218 1597 3218 1589.82 3218 1584 3211.96 1584 3204.5Z" fill-rule="evenodd"/><path d="M1886 2765.69 1899.51 2786.84 1922.67 2800.31 1949.68 2808 1996 2356 1968.98 2361.77 1949.68 2386.77 1940.04 2406.01 1928.46 2446.4 1886 2765.69Z" fill-rule="evenodd"/><path d="M561.218 2578 1443 2578 1407.6 2528.71 558 2488 561.218 2578Z" fill-rule="evenodd"/><rect x="917" y="2566" width="160" height="696"/><path d="M1117 2489 1385.34 2505.5" stroke="#5E5E5E" stroke-width="13.75" stroke-linejoin="round" stroke-miterlimit="10" fill="none" fill-rule="evenodd"/><path d="M1017 2303 1120.62 2497.68" stroke="#5E5E5E" stroke-width="13.75" stroke-linejoin="round" stroke-miterlimit="10" fill="none" fill-rule="evenodd"/><path d="M4629.22 2799.29 4627.25 2845.97 4669.96 2846.63 4669.96 3173.42 4577.31 3152.38 4578.62 3179.34 4585.19 3176.05 4591.76 3175.4 4595.05 3180 4595.05 3177.37 4654.19 3189.21 4507 3216.16 4507.66 3245.75 4515.54 3240.49 4518.17 3241.81 4524.74 3245.75 4527.37 3239.84 4524.74 3236.55 4527.37 3229.97 4673.9 3211.56 4675.87 3276 4687.04 3271.4 4689.67 3271.4 4696.24 3273.37 4696.24 3273.37 4696.24 3273.37 4698.87 3210.9 4826.34 3249.7 4827.66 3253.64 4835.54 3251.67 4844.09 3251.01 4850 3254.3 4847.37 3228 4736.98 3195.78 4803.35 3181.31 4804.66 3184.6 4818.46 3185.26 4821.09 3183.29 4817.15 3153.7 4706.1 3178.03C4705.88 3067.78 4705.66 2957.53 4705.44 2847.29L4750.78 2847.95 4749.47 2796 4629.22 2799.29Z" fill-rule="evenodd"/><path d="M4866.28 2737 4515.82 2737 4463.1 2789.83 4460 2814.48 4509.62 2818 4919 2818 4900.39 2768.7 4866.28 2737Z" fill-rule="evenodd"/><path d="M4500 3256.5C4500 3247.39 4507.61 3240 4517 3240 4526.39 3240 4534 3247.39 4534 3256.5 4534 3265.61 4526.39 3273 4517 3273 4507.61 3273 4500 3265.61 4500 3256.5Z" fill-rule="evenodd"/><path d="M4670 3285.5C4670 3276.39 4677.39 3269 4686.5 3269 4695.61 3269 4703 3276.39 4703 3285.5 4703 3294.61 4695.61 3302 4686.5 3302 4677.39 3302 4670 3294.61 4670 3285.5Z" fill-rule="evenodd"/><path d="M4823 3265.5C4823 3256.39 4830.39 3249 4839.5 3249 4848.61 3249 4856 3256.39 4856 3265.5 4856 3274.61 4848.61 3282 4839.5 3282 4830.39 3282 4823 3274.61 4823 3265.5Z" fill-rule="evenodd"/><path d="M4798 3194C4798 3185.72 4804.72 3179 4813 3179 4821.28 3179 4828 3185.72 4828 3194 4828 3202.28 4821.28 3209 4813 3209 4804.72 3209 4798 3202.28 4798 3194Z" fill-rule="evenodd"/><path d="M4573 3187.5C4573 3179.49 4579.49 3173 4587.5 3173 4595.51 3173 4602 3179.49 4602 3187.5 4602 3195.51 4595.51 3202 4587.5 3202 4579.49 3202 4573 3195.51 4573 3187.5Z" fill-rule="evenodd"/><path d="M4880.61 2724.82 4890.04 2750.58 4911.55 2770.38 4938.52 2784.91 5093.72 2312.71 5063.59 2312.57 5037.18 2334.78 5022.4 2353.08 5000.61 2393.54 4880.61 2724.82Z" fill-rule="evenodd"/><path d="M4665.95 2258.47 4499.74 2426.47 4260.64 2423.39 4222.07 2450.63 4510.93 2476.67 4668.31 2364.03 4683.04 2454.87 4683.19 2574.27 4374.31 2631.86 4335.15 2652.33 4314.69 2691.64 4310.86 2726.09 4305 3129.2 4211.22 3188.54 4387.01 3169.83 4429.83 2760.09 4733.7 2723.41 4847.06 2693.08 4880.04 2601.5 4894.46 2532.01 4857.78 2228.13 4824.06 2193.53 4766.2 2195.16 4699.07 2207.82 4665.95 2258.47Z" fill="#DFF7D7" fill-rule="evenodd"/><path d="M4653.2 2082.66C4648.07 2023.75 4692 1971.81 4751.31 1966.64 4810.62 1961.48 4862.85 2005.06 4867.98 2063.97 4873.1 2122.87 4829.18 2174.81 4769.87 2179.98 4710.56 2185.14 4658.32 2141.56 4653.2 2082.66Z" fill="#DFF7D7" fill-rule="evenodd"/><path d="M4805 2129C4805 2069.91 4852.91 2022 4912 2022 4971.09 2022 5019 2069.91 5019 2129 5019 2188.09 4971.09 2236 4912 2236 4852.91 2236 4805 2188.09 4805 2129Z" fill-rule="evenodd"/><path d="M4218 3186 4323.19 3128.16 4320.56 2689.08 4325.82 2660.16 4341.6 2641.75 4354.75 2631.24 4383.67 2618.09 4433.64 2615.46 4701.88 2578.65 4801.81 2428.79 4807.07 2355.17 4575.65 2436.67 4302.15 2415.64 4352.12 2378.83 4580.91 2384.09 4791.29 2278.92 4817.58 2260.52 4849.14 2250 4914.89 2250 4946.44 2265.78 4975.37 2307.84 4978 2449.82 4891.22 2628.61 4809.7 2710.11 4783.4 2720.63 4759.73 2718 4444.16 2744.29 4399.45 3164.97 4218 3186Z" fill-rule="evenodd"/><path d="M3563.52 2537 4528 2537 4489.28 2483.33 3560 2439 3563.52 2537Z" fill-rule="evenodd"/><rect x="3952" y="2524" width="175" height="762"/><path d="M4162 2436 4455.39 2454.04" stroke="#5E5E5E" stroke-width="13.75" stroke-linejoin="round" stroke-miterlimit="10" fill="none" fill-rule="evenodd"/><path d="M4053 2232 4166.29 2444.85" stroke="#5E5E5E" stroke-width="13.75" stroke-linejoin="round" stroke-miterlimit="10" fill="none" fill-rule="evenodd"/><path d="M4794 2694 4872.11 2630.89 4962.89 2456.27 4965 2309 4952.33 2313.21 4952.33 2447.85 4872.11 2611.95 4794 2694Z" fill="#FA1F00" fill-rule="evenodd"/><g clip-path="url(#clip6)" filter="url(#fx0)" transform="translate(2877 1633)"><g clip-path="url(#clip7)"><path d="M26.7227 19.7229 26.723 2047.85" stroke="#5E5E5E" stroke-width="14" stroke-linejoin="round" stroke-miterlimit="10" fill="none" fill-rule="evenodd"/></g></g><path d="M2894 1643 2894 3671.12" stroke="#5E5E5E" stroke-width="13.75" stroke-linejoin="round" stroke-miterlimit="10" fill="none" fill-rule="evenodd"/><g clip-path="url(#clip8)" filter="url(#fx1)" transform="translate(5586 1633)"><g clip-path="url(#clip9)"><path d="M26.7227 19.7229 26.723 2047.85" stroke="#5E5E5E" stroke-width="14" stroke-linejoin="round" stroke-miterlimit="10" fill="none" fill-rule="evenodd"/></g></g><path d="M5603 1643 5603 3671.12" stroke="#5E5E5E" stroke-width="13.75" stroke-linejoin="round" stroke-miterlimit="10" fill="none" fill-rule="evenodd"/><text fill="#5E5E5E" font-family="Arial,Arial_MSFontService,sans-serif" font-weight="700" font-size="110" transform="matrix(1 0 0 1 3959.05 3561)">Bad Posture<tspan font-size="110" x="2841.81" y="-27">Activity (Exercise)</tspan></text><g clip-path="url(#clip10)"><g clip-path="url(#clip11)"><g clip-path="url(#clip12)"><path d="M3275.68 1946.62C3222.51 1946.63 3179.39 1903.54 3179.38 1850.37 3179.36 1797.2 3222.46 1754.08 3275.63 1754.06 3328.8 1754.05 3371.92 1797.14 3371.93 1850.31 3371.93 1850.32 3371.93 1850.33 3371.93 1850.34 3372.03 1903.42 3329.08 1946.52 3276 1946.62 3275.89 1946.62 3275.79 1946.62 3275.68 1946.62ZM3357.15 1766.44 3367.47 1756.13C3371.32 1752.03 3371.17 1745.6 3367.12 1741.69 3363.14 1737.81 3356.84 1737.66 3352.68 1741.35L3341 1753.38C3324.64 1742.3 3305.69 1735.67 3286 1734.13L3286 1719.69 3316.93 1719.69 3316.93 1699.07 3234.43 1699.07 3234.43 1719.69 3265.37 1719.69 3265.37 1733.79C3200.89 1739.4 3153.17 1796.22 3158.78 1860.7 3164.39 1925.18 3221.21 1972.9 3285.69 1967.29 3350.17 1961.68 3397.89 1904.86 3392.28 1840.38 3389.84 1812.31 3377.37 1786.07 3357.15 1766.44Z" fill="#10AD9B"/><path d="M3333.99 1908.6C3366.19 1876.37 3366.17 1824.13 3333.94 1791.93 3318.48 1776.48 3297.53 1767.8 3275.68 1767.79L3275.68 1850.29Z" fill="#10AD9B"/></g></g></g><g clip-path="url(#clip13)"><g clip-path="url(#clip14)"><g clip-path="url(#clip15)"><path d="M534.684 1948.62C481.511 1948.63 438.394 1905.54 438.379 1852.37 438.363 1799.2 481.456 1756.08 534.629 1756.06 587.801 1756.05 630.919 1799.14 630.934 1852.31 630.934 1852.32 630.934 1852.33 630.934 1852.34 631.029 1905.42 588.078 1948.52 535 1948.62 534.895 1948.62 534.789 1948.62 534.684 1948.62ZM616.152 1768.44 626.465 1758.13C630.318 1754.03 630.165 1747.6 626.121 1743.69 622.142 1739.81 615.843 1739.66 611.684 1743.35L599.996 1755.38C583.643 1744.3 564.689 1737.67 544.996 1736.13L544.996 1721.69 575.934 1721.69 575.934 1701.07 493.434 1701.07 493.434 1721.69 524.371 1721.69 524.371 1735.79C459.89 1741.4 412.166 1798.22 417.776 1862.7 423.387 1927.18 480.207 1974.9 544.688 1969.29 609.17 1963.68 656.894 1906.86 651.283 1842.38 648.841 1814.31 636.37 1788.07 616.152 1768.44Z"/><path d="M617.177 1852.29C617.124 1806.75 580.218 1769.84 534.677 1769.79L534.677 1852.29Z"/></g></g></g><path d="M7213.56 2755.43 7211.51 2804.16 7256.08 2804.85 7256.08 3145.94 7159.38 3123.98 7160.75 3152.11 7167.61 3148.68 7174.47 3148 7177.9 3152.8 7177.9 3150.05 7239.62 3162.41 7086 3190.55 7086.69 3221.43 7094.92 3215.94 7097.66 3217.31 7104.52 3221.43 7107.26 3215.25 7104.52 3211.82 7107.26 3204.96 7260.2 3185.74 7262.26 3253 7273.92 3248.2 7276.66 3248.2 7283.52 3250.25 7283.52 3250.25 7283.52 3250.25 7286.26 3185.06 7419.31 3225.55 7420.68 3229.67 7428.91 3227.61 7437.83 3226.92 7444 3230.35 7441.26 3202.9 7326.04 3169.27 7395.31 3154.17 7396.68 3157.6 7411.08 3158.29 7413.82 3156.23 7409.71 3125.35 7293.8 3150.74C7293.58 3035.67 7293.35 2920.6 7293.12 2805.53L7340.44 2806.22 7339.07 2752 7213.56 2755.43Z" fill-rule="evenodd"/><path d="M7460.98 2691 7095.26 2691 7040.24 2745.13 7037 2770.39 7088.78 2774 7516 2774 7496.58 2723.48 7460.98 2691Z" fill-rule="evenodd"/><path d="M7079 3232.5C7079 3222.83 7086.83 3215 7096.5 3215 7106.17 3215 7114 3222.83 7114 3232.5 7114 3242.17 7106.17 3250 7096.5 3250 7086.83 3250 7079 3242.17 7079 3232.5Z" fill-rule="evenodd"/><path d="M7255 3263C7255 3253.61 7262.83 3246 7272.5 3246 7282.17 3246 7290 3253.61 7290 3263 7290 3272.39 7282.17 3280 7272.5 3280 7262.83 3280 7255 3272.39 7255 3263Z" fill-rule="evenodd"/><path d="M7415 3242.5C7415 3232.83 7422.83 3225 7432.5 3225 7442.17 3225 7450 3232.83 7450 3242.5 7450 3252.17 7442.17 3260 7432.5 3260 7422.83 3260 7415 3252.17 7415 3242.5Z" fill-rule="evenodd"/><path d="M7390 3167.5C7390 3158.94 7396.94 3152 7405.5 3152 7414.06 3152 7421 3158.94 7421 3167.5 7421 3176.06 7414.06 3183 7405.5 3183 7396.94 3183 7390 3176.06 7390 3167.5Z" fill-rule="evenodd"/><path d="M7154 3160C7154 3151.72 7160.72 3145 7169 3145 7177.28 3145 7184 3151.72 7184 3160 7184 3168.28 7177.28 3175 7169 3175 7160.72 3175 7154 3168.28 7154 3160Z" fill-rule="evenodd"/><path d="M6100.67 2482 7107 2482 7066.6 2426.14 6097 2380 6100.67 2482Z" fill-rule="evenodd"/><rect x="6507" y="2468" width="182" height="795"/><path d="M6726 2376 7032.2 2394.82" stroke="#5E5E5E" stroke-width="13.75" stroke-linejoin="round" stroke-miterlimit="10" fill="none" fill-rule="evenodd"/><path d="M6612 2164 6730.24 2386.15" stroke="#5E5E5E" stroke-width="13.75" stroke-linejoin="round" stroke-miterlimit="10" fill="none" fill-rule="evenodd"/><path d="M7843.74 3289.39 7739 3256.7 7928.84 2942.87 8027.04 2410.03 7945.21 2452.53 7876.47 2635.59 7856.83 2580.02 7899.38 2393.68 8040.13 2295.61 8095.77 2279.27 8144.87 2276 8197.24 2302.15 8216.88 2338.11 8292.16 2517.91 8482 2606.17 8429.63 2629.05 8272.52 2583.28 8197.24 2475.41 8167.78 2727.12 8308.52 2874.22 8288.89 3263.23 8344.53 3292.66 8370.71 3309 8193.96 3295.92 8226.7 3266.5 8216.88 2913.45 8079.41 2825.19 8013.94 3001.72 7830.65 3263.23 7879.74 3302.46 7843.74 3289.39Z" fill-rule="evenodd"/><path d="M8040 2111C8040 2048.59 8091.94 1998 8156 1998 8220.07 1998 8272 2048.59 8272 2111 8272 2173.41 8220.07 2224 8156 2224 8091.94 2224 8040 2173.41 8040 2111Z" fill-rule="evenodd"/><path d="M7482 2662.69 7495.51 2683.84 7518.67 2697.31 7545.68 2705 7592 2253 7564.98 2258.77 7545.68 2283.77 7536.04 2303.01 7524.46 2343.4 7482 2662.69Z" fill-rule="evenodd"/></g></svg>