<svg width="2273" height="3263" xmlns="http://www.w3.org/2000/svg" xmlns:xlink="http://www.w3.org/1999/xlink" xml:space="preserve" overflow="hidden"><defs><clipPath id="clip0"><rect x="365" y="967" width="2273" height="3263"/></clipPath></defs><g clip-path="url(#clip0)" transform="translate(-365 -967)"><path d="M1956.36 2996.32 1749.98 3171.61 1477.4 3144.35 1430.67 3171.61 1757.77 3230.04 1948.57 3117.08 1956.36 3222.25 1944.68 3358.59 1586.43 3393.65 1539.7 3413.12 1512.44 3455.97 1504.65 3494.92 1457.93 3954.57 1345 4013 1547.49 4009.1 1637.05 3545.56 1987.51 3533.88 2119.91 3510.51 2166.64 3409.23 2190 3331.32 2178.32 2980.74 2143.27 2937.9 2077.07 2934 1999.19 2941.79 1956.36 2996.32Z" fill-rule="evenodd"/><path d="M1959 2795C1959 2727.07 2014.29 2672 2082.5 2672 2150.71 2672 2206 2727.07 2206 2795 2206 2862.93 2150.71 2918 2082.5 2918 2014.29 2918 1959 2862.93 1959 2795Z" fill-rule="evenodd"/><path d="M1864.03 3653.77 1861.78 3707.26 1910.71 3708.01 1910.71 4082.47 1804.56 4058.36 1806.06 4089.25 1813.59 4085.48 1821.12 4084.73 1824.89 4090 1824.89 4086.99 1892.64 4100.55 1724 4131.44 1724.75 4165.34 1733.79 4159.31 1736.8 4160.82 1744.33 4165.34 1747.34 4158.56 1744.33 4154.79 1747.34 4147.26 1915.23 4126.16 1917.49 4200 1930.29 4194.73 1933.3 4194.73 1940.83 4196.99 1940.83 4196.99 1940.83 4196.99 1943.84 4125.41 2089.9 4169.86 2091.4 4174.38 2100.44 4172.12 2110.22 4171.37 2117 4175.14 2113.99 4145 1987.51 4108.08 2063.55 4091.51 2065.05 4095.27 2080.86 4096.03 2083.87 4093.77 2079.36 4059.86 1952.12 4087.74C1951.87 3961.42 1951.62 3835.09 1951.37 3708.77L2003.32 3709.52 2001.81 3650 1864.03 3653.77Z" fill-rule="evenodd"/><path d="M2158.66 3570 1704.36 3570 1636.02 3630.65 1632 3658.96 1696.32 3663 2227 3663 2202.88 3606.39 2158.66 3570Z" fill-rule="evenodd"/><path d="M1717 4178C1717 4167.51 1725.51 4159 1736 4159 1746.49 4159 1755 4167.51 1755 4178 1755 4188.49 1746.49 4197 1736 4197 1725.51 4197 1717 4188.49 1717 4178Z" fill-rule="evenodd"/><path d="M1910 4211C1910 4200.51 1918.51 4192 1929 4192 1939.49 4192 1948 4200.51 1948 4211 1948 4221.49 1939.49 4230 1929 4230 1918.51 4230 1910 4221.49 1910 4211Z" fill-rule="evenodd"/><path d="M2086 4188C2086 4177.51 2094.51 4169 2105 4169 2115.49 4169 2124 4177.51 2124 4188 2124 4198.49 2115.49 4207 2105 4207 2094.51 4207 2086 4198.49 2086 4188Z" fill-rule="evenodd"/><path d="M2058 4106C2058 4096.61 2065.61 4089 2075 4089 2084.39 4089 2092 4096.61 2092 4106 2092 4115.39 2084.39 4123 2075 4123 2065.61 4123 2058 4115.39 2058 4106Z" fill-rule="evenodd"/><path d="M1799 4098.5C1799 4089.39 1806.61 4082 1816 4082 1825.39 4082 1833 4089.39 1833 4098.5 1833 4107.61 1825.39 4115 1816 4115 1806.61 4115 1799 4107.61 1799 4098.5Z" fill-rule="evenodd"/><path d="M2177 3550.01 2193.95 3576.51 2223 3593.37 2256.89 3603 2315 3037 2281.11 3044.23 2256.89 3075.54 2244.79 3099.62 2230.26 3150.2 2177 3550.01Z" fill-rule="evenodd"/><path d="M519.029 3314 1623 3314 1578.68 3252.12 515 3201 519.029 3314Z" fill-rule="evenodd"/><rect x="964" y="3299" width="200" height="872"/><path d="M1215 3203 1551.03 3223.66" stroke="#5E5E5E" stroke-width="13.75" stroke-linejoin="round" stroke-miterlimit="10" fill="none" fill-rule="evenodd"/><path d="M1090 2970 1219.76 3213.78" stroke="#5E5E5E" stroke-width="13.75" stroke-linejoin="round" stroke-miterlimit="10" fill="none" fill-rule="evenodd"/><rect x="1582" y="3238" width="67" height="61.9998" fill="#66C7FF"/><rect x="2138" y="2915" width="67.9998" height="61.9998" fill="#45AA21"/><path d="M370 1412.5C370 1182.47 559.16 996 792.5 996 1025.84 996 1215 1182.47 1215 1412.5 1215 1642.53 1025.84 1829 792.5 1829 559.16 1829 370 1642.53 370 1412.5Z" stroke="#66C7FF" stroke-width="10.3125" fill="#EBF8FF" fill-rule="evenodd" fill-opacity="0.6"/><text font-family="Arial,Arial_MSFontService,sans-serif" font-weight="400" font-size="92" transform="matrix(1 0 0 1 555.575 1227)">Blue Gecko <tspan font-size="92" x="27.775" y="110">STK client</tspan><tspan font-size="92" x="210.26" y="220">+</tspan><tspan font-size="92" x="48.4" y="330">Proximity </tspan><tspan font-size="92" x="99.3896" y="440">sensor</tspan></text><path d="M1789 1389C1789 1158.7 1977.94 972 2211 972 2444.06 972 2633 1158.7 2633 1389 2633 1619.3 2444.06 1806 2211 1806 1977.94 1806 1789 1619.3 1789 1389Z" stroke="#45AA21" stroke-width="10.3125" fill="#F1FCEE" fill-rule="evenodd" fill-opacity="0.6"/><text font-family="Arial,Arial_MSFontService,sans-serif" font-weight="400" font-size="83" transform="matrix(1 0 0 1 1997.6 1221)">Blue Gecko <tspan font-size="83" x="6.875" y="99">STK server</tspan><tspan font-size="83" x="189.063" y="198">+</tspan><tspan font-size="83" x="137.5" y="297">IMU </tspan><tspan font-size="83" x="89.3751" y="396">sensor</tspan></text><path d="M911 1806 1615.04 3238.04" stroke="#66C7FF" stroke-width="10.3125" stroke-dasharray="41.25 30.9375" fill="none" fill-rule="evenodd"/><path d="M0 0 38.5928 1109.27" stroke="#61D836" stroke-width="10.3125" stroke-dasharray="41.25 30.9375" fill="none" fill-rule="evenodd" transform="matrix(-1 0 0 1 2210.59 1806)"/></g></svg>