<svg width="883" height="881" viewBox="0 0 883 881" fill="none" xmlns="http://www.w3.org/2000/svg">
<path fill-rule="evenodd" clip-rule="evenodd" d="M134 273.293V747H609.007L749 607.007V134H273.293L134 273.293Z" fill="black"/>
<path d="M579 550L496 407.5H441V550H395.5V201.5H508C534.333 201.5 556.5 206 574.5 215C592.833 224 606.5 236.167 615.5 251.5C624.5 266.833 629 284.333 629 304C629 328 622 349.167 608 367.5C594.333 385.833 573.667 398 546 404L633.5 550H579ZM441 371H508C532.667 371 551.167 365 563.5 353C575.833 340.667 582 324.333 582 304C582 283.333 575.833 267.333 563.5 256C551.5 244.667 533 239 508 239H441V371Z" fill="white"/>
<path d="M234.3 657.7C234.3 663.5 232.3 668.333 228.3 672.2C224.367 676 218.333 677.9 210.2 677.9H196.8V707H187.7V637.3H210.2C218.067 637.3 224.033 639.2 228.1 643C232.233 646.8 234.3 651.7 234.3 657.7ZM210.2 670.4C215.267 670.4 219 669.3 221.4 667.1C223.8 664.9 225 661.767 225 657.7C225 649.1 220.067 644.8 210.2 644.8H196.8V670.4H210.2ZM269.51 707.9C264.377 707.9 259.71 706.733 255.51 704.4C251.377 702.067 248.11 698.767 245.71 694.5C243.377 690.167 242.21 685.167 242.21 679.5C242.21 673.9 243.41 668.967 245.81 664.7C248.277 660.367 251.61 657.067 255.81 654.8C260.01 652.467 264.71 651.3 269.91 651.3C275.11 651.3 279.81 652.467 284.01 654.8C288.21 657.067 291.51 660.333 293.91 664.6C296.377 668.867 297.61 673.833 297.61 679.5C297.61 685.167 296.343 690.167 293.81 694.5C291.343 698.767 287.977 702.067 283.71 704.4C279.443 706.733 274.71 707.9 269.51 707.9ZM269.51 699.9C272.777 699.9 275.843 699.133 278.71 697.6C281.577 696.067 283.877 693.767 285.61 690.7C287.41 687.633 288.31 683.9 288.31 679.5C288.31 675.1 287.443 671.367 285.71 668.3C283.977 665.233 281.71 662.967 278.91 661.5C276.11 659.967 273.077 659.2 269.81 659.2C266.477 659.2 263.41 659.967 260.61 661.5C257.877 662.967 255.677 665.233 254.01 668.3C252.343 671.367 251.51 675.1 251.51 679.5C251.51 683.967 252.31 687.733 253.91 690.8C255.577 693.867 257.777 696.167 260.51 697.7C263.243 699.167 266.243 699.9 269.51 699.9ZM318.675 661.1C320.275 657.967 322.542 655.533 325.475 653.8C328.475 652.067 332.108 651.2 336.375 651.2V660.6H333.975C323.775 660.6 318.675 666.133 318.675 677.2V707H309.575V652.2H318.675V661.1ZM357.98 659.7V692C357.98 694.667 358.546 696.567 359.68 697.7C360.813 698.767 362.78 699.3 365.58 699.3H372.28V707H364.08C359.013 707 355.213 705.833 352.68 703.5C350.146 701.167 348.88 697.333 348.88 692V659.7H341.78V652.2H348.88V638.4H357.98V652.2H372.28V659.7H357.98ZM405.605 659.7H394.105V707H385.005V659.7H377.905V652.2H385.005V648.3C385.005 642.167 386.572 637.7 389.705 634.9C392.905 632.033 398.005 630.6 405.005 630.6V638.2C401.005 638.2 398.172 639 396.505 640.6C394.905 642.133 394.105 644.7 394.105 648.3V652.2H405.605V659.7ZM440.116 707.9C434.982 707.9 430.316 706.733 426.116 704.4C421.982 702.067 418.716 698.767 416.316 694.5C413.982 690.167 412.816 685.167 412.816 679.5C412.816 673.9 414.016 668.967 416.416 664.7C418.882 660.367 422.216 657.067 426.416 654.8C430.616 652.467 435.316 651.3 440.516 651.3C445.716 651.3 450.416 652.467 454.616 654.8C458.816 657.067 462.116 660.333 464.516 664.6C466.982 668.867 468.216 673.833 468.216 679.5C468.216 685.167 466.949 690.167 464.416 694.5C461.949 698.767 458.582 702.067 454.316 704.4C450.049 706.733 445.316 707.9 440.116 707.9ZM440.116 699.9C443.382 699.9 446.449 699.133 449.316 697.6C452.182 696.067 454.482 693.767 456.216 690.7C458.016 687.633 458.916 683.9 458.916 679.5C458.916 675.1 458.049 671.367 456.316 668.3C454.582 665.233 452.316 662.967 449.516 661.5C446.716 659.967 443.682 659.2 440.416 659.2C437.082 659.2 434.016 659.967 431.216 661.5C428.482 662.967 426.282 665.233 424.616 668.3C422.949 671.367 422.116 675.1 422.116 679.5C422.116 683.967 422.916 687.733 424.516 690.8C426.182 693.867 428.382 696.167 431.116 697.7C433.849 699.167 436.849 699.9 440.116 699.9ZM489.28 633V707H480.18V633H489.28ZM509.49 643.3C507.757 643.3 506.29 642.7 505.09 641.5C503.89 640.3 503.29 638.833 503.29 637.1C503.29 635.367 503.89 633.9 505.09 632.7C506.29 631.5 507.757 630.9 509.49 630.9C511.157 630.9 512.557 631.5 513.69 632.7C514.89 633.9 515.49 635.367 515.49 637.1C515.49 638.833 514.89 640.3 513.69 641.5C512.557 642.7 511.157 643.3 509.49 643.3ZM513.89 652.2V707H504.79V652.2H513.89ZM553.299 707.9C548.166 707.9 543.499 706.733 539.299 704.4C535.166 702.067 531.899 698.767 529.499 694.5C527.166 690.167 525.999 685.167 525.999 679.5C525.999 673.9 527.199 668.967 529.599 664.7C532.066 660.367 535.399 657.067 539.599 654.8C543.799 652.467 548.499 651.3 553.699 651.3C558.899 651.3 563.599 652.467 567.799 654.8C571.999 657.067 575.299 660.333 577.699 664.6C580.166 668.867 581.399 673.833 581.399 679.5C581.399 685.167 580.133 690.167 577.599 694.5C575.133 698.767 571.766 702.067 567.499 704.4C563.233 706.733 558.499 707.9 553.299 707.9ZM553.299 699.9C556.566 699.9 559.633 699.133 562.499 697.6C565.366 696.067 567.666 693.767 569.399 690.7C571.199 687.633 572.099 683.9 572.099 679.5C572.099 675.1 571.233 671.367 569.499 668.3C567.766 665.233 565.499 662.967 562.699 661.5C559.899 659.967 556.866 659.2 553.599 659.2C550.266 659.2 547.199 659.967 544.399 661.5C541.666 662.967 539.466 665.233 537.799 668.3C536.133 671.367 535.299 675.1 535.299 679.5C535.299 683.967 536.099 687.733 537.699 690.8C539.366 693.867 541.566 696.167 544.299 697.7C547.033 699.167 550.033 699.9 553.299 699.9Z" fill="white"/>
</svg>
